<?xml version="1.0" encoding="UTF-8" standalone="no"?>
<!DOCTYPE svg PUBLIC "-//W3C//DTD SVG 20010904//EN"
              "http://www.w3.org/TR/2001/REC-SVG-20010904/DTD/svg10.dtd">

<svg xmlns="http://www.w3.org/2000/svg"
     width="2.03333in" height="1.71in"
     viewBox="0 0 610 513">
  <path id="Selection"
        d="M 346.00,49.42
           C 338.67,46.67 205.53,63.26 200.55,98.00
             189.00,142.00 314.33,163.33 381.00,159.00
             381.00,159.00 519.67,156.00 527.90,103.00
             524.33,63.33 411.00,46.67 346.00,49.42 Z
           M 396.00,186.00
           C 399.20,192.62 419.38,200.88 427.75,211.50
             430.86,215.74 440.25,228.62 442.25,233.75
             446.01,234.55 463.40,230.02 468.00,228.87
             485.54,224.49 515.22,214.24 524.64,198.00
             527.82,192.52 527.99,189.10 528.00,183.00
             528.00,183.00 527.92,161.08 527.92,161.08
             527.95,157.79 528.80,154.30 526.66,153.00
             525.72,152.43 525.42,151.16 522.72,153.09
             514.64,165.09 439.45,184.36 396.00,186.00 Z
           M 233.00,323.00
           C 298.00,325.67 417.33,307.33 418.48,253.00
             414.67,202.33 298.67,186.00 269.00,186.21
             187.33,180.67 86.33,213.00 90.01,256.00
             96.50,303.25 183.25,322.50 233.00,323.00 Z
           M 523.94,234.95
           C 510.62,245.00 460.12,261.50 449.13,260.57
             444.48,263.15 446.01,268.15 446.00,272.75
             446.00,272.75 446.00,303.25 446.00,303.25
             446.00,306.19 445.19,315.70 447.75,315.25
             453.87,314.18 467.11,311.62 473.00,309.67
             492.81,303.09 527.69,292.39 528.00,267.00
             528.00,267.00 528.00,244.00 528.00,244.00
             528.04,239.59 529.76,233.11 523.94,234.95 Z
           M 110.00,318.69
           C 105.16,316.07 97.61,309.62 92.31,310.23
             88.50,313.83 90.00,323.83 90.00,329.00
             90.00,335.49 89.62,351.69 91.44,357.00
             99.00,394.33 228.00,407.18 251.33,405.91
             273.00,407.00 370.11,397.57 398.00,377.40
             411.80,369.15 418.92,361.72 419.00,345.00
             419.00,345.00 419.00,319.00 419.00,319.00
             418.99,314.77 419.93,307.41 413.25,309.75
             385.75,335.50 282.50,356.25 242.00,350.00
             194.75,347.75 148.00,345.25 110.00,318.69 Z
           M 92.00,398.00
           C 89.77,402.82 90.01,403.83 90.00,409.00
             89.99,415.77 89.26,433.52 91.10,439.00
             96.68,455.60 124.99,468.46 141.00,472.85
             171.00,482.75 222.50,487.75 254.00,487.92
             291.25,490.75 386.88,473.96 402.00,456.96
             412.09,449.82 418.85,441.69 419.00,429.00
             419.00,429.00 419.00,408.00 419.00,408.00
             418.99,405.22 419.55,399.65 415.85,398.99
             413.88,398.63 410.76,400.38 409.00,401.25
             366.67,430.00 291.67,432.33 239.00,432.00
             197.67,432.67 148.67,424.33 115.00,408.69
             108.18,405.62 98.63,399.66 92.00,398.00 Z" />
</svg>
