<?xml version="1.0" encoding="UTF-8" standalone="no"?>
<!DOCTYPE svg PUBLIC "-//W3C//DTD SVG 20010904//EN"
              "http://www.w3.org/TR/2001/REC-SVG-20010904/DTD/svg10.dtd">

<svg xmlns="http://www.w3.org/2000/svg"
     width="1.99333in" height="1.78333in"
     viewBox="0 0 598 535">
  <path id="Selection"
        fill="none" stroke="white" stroke-width="1"
        d="M 333.00,90.00
           C 330.32,72.65 316.77,61.01 299.00,65.51
             294.81,66.57 277.71,75.92 273.00,78.58
             273.00,78.58 232.00,101.81 232.00,101.81
             191.44,126.61 134.23,162.62 104.46,199.00
             89.29,217.54 79.06,238.02 72.58,261.00
             69.64,271.41 67.02,285.21 67.00,296.00
             67.00,296.00 67.00,316.00 67.00,316.00
             67.03,336.74 75.02,364.50 84.27,383.00
             123.39,461.25 215.00,494.65 296.00,464.95
             349.61,445.29 381.01,399.95 412.28,355.00
             427.18,333.58 440.44,310.63 453.42,288.00
             453.42,288.00 475.91,246.00 475.91,246.00
             480.20,234.05 477.08,221.20 466.00,214.13
             462.26,211.75 456.35,209.99 452.00,209.00
             452.00,209.00 473.34,155.00 473.34,155.00
             473.34,155.00 499.33,77.00 499.33,77.00
             503.74,63.49 507.11,45.16 489.00,39.94
             486.44,39.20 483.66,38.93 481.00,39.09
             476.05,39.40 470.78,41.48 466.00,42.86
             466.00,42.86 433.00,53.33 433.00,53.33
             433.00,53.33 381.00,71.05 381.00,71.05
             381.00,71.05 333.00,90.00 333.00,90.00 Z
           M 473.00,69.00
           C 472.21,77.81 460.80,109.59 457.33,120.00
             448.58,146.27 427.83,203.36 415.00,226.00
             415.00,226.00 451.00,235.00 451.00,235.00
             448.75,242.90 437.04,262.84 432.42,271.00
             432.42,271.00 391.67,338.00 391.67,338.00
             370.74,369.40 340.24,412.43 307.00,430.69
             243.59,465.52 164.75,450.57 120.89,392.00
             112.62,380.95 105.07,366.10 100.67,353.00
             96.63,341.00 93.15,324.64 93.00,312.00
             92.57,274.74 102.56,243.05 126.46,214.00
             144.26,192.38 245.00,119.33 276.00,106.70
             284.17,102.21 297.72,93.36 306.00,91.00
             306.00,91.00 316.00,127.00 316.00,127.00
             316.00,127.00 358.00,108.45 358.00,108.45
             358.00,108.45 423.00,84.92 423.00,84.92
             423.00,84.92 473.00,69.00 473.00,69.00 Z
           M 228.00,196.55
           C 219.06,199.36 217.61,205.28 213.75,213.00
             213.75,213.00 199.25,242.00 199.25,242.00
             197.69,245.14 194.27,253.67 192.36,255.69
             189.47,258.75 182.11,258.97 178.00,259.58
             178.00,259.58 142.00,264.87 142.00,264.87
             133.13,266.10 121.05,267.01 121.20,279.00
             121.29,286.60 127.93,291.58 133.00,296.17
             133.00,296.17 157.00,320.00 157.00,320.00
             159.87,322.86 166.91,328.32 167.60,332.01
             168.02,334.28 165.77,346.02 165.20,349.00
             165.20,349.00 159.61,381.00 159.61,381.00
             158.13,388.89 155.75,398.03 164.02,403.15
             171.62,407.85 179.38,402.53 186.00,398.86
             186.00,398.86 215.00,383.69 215.00,383.69
             217.92,382.11 226.93,376.69 229.72,376.43
             232.36,376.19 244.11,382.80 247.00,384.42
             247.00,384.42 273.00,398.24 273.00,398.24
             276.24,399.89 283.84,403.96 287.00,404.61
             297.19,406.69 302.32,399.34 301.96,390.00
             301.96,390.00 295.08,348.00 295.08,348.00
             294.47,344.34 292.17,334.02 293.31,331.00
             294.47,327.92 301.39,321.61 304.00,319.00
             304.00,319.00 331.00,293.00 331.00,293.00
             336.82,287.10 342.76,279.28 336.35,271.19
             332.39,266.19 325.81,265.94 320.00,265.13
             320.00,265.13 284.00,259.87 284.00,259.87
             280.42,259.37 271.09,258.62 268.63,256.41
             266.72,254.69 262.15,244.87 260.78,242.00
             260.78,242.00 245.75,211.00 245.75,211.00
             241.68,202.85 238.72,195.27 228.00,196.55 Z
           M 231.00,241.00
           C 231.00,241.00 244.75,269.00 244.75,269.00
             244.75,269.00 252.21,281.07 252.21,281.07
             252.21,281.07 266.00,284.13 266.00,284.13
             266.00,284.13 296.00,289.00 296.00,289.00
             296.00,289.00 275.00,310.17 275.00,310.17
             275.00,310.17 264.64,322.00 264.64,322.00
             264.64,322.00 265.92,335.00 265.92,335.00
             265.92,335.00 271.00,366.00 271.00,366.00
             271.00,366.00 244.00,353.14 244.00,353.14
             244.00,353.14 230.00,346.78 230.00,346.78
             230.00,346.78 219.00,351.74 219.00,351.74
             219.00,351.74 189.00,366.00 189.00,366.00
             189.00,366.00 194.39,336.00 194.39,336.00
             194.39,336.00 195.69,322.00 195.69,322.00
             195.69,322.00 186.00,311.00 186.00,311.00
             186.00,311.00 164.00,290.00 164.00,290.00
             167.48,287.42 171.77,287.46 176.00,286.87
             176.00,286.87 198.00,283.59 198.00,283.59
             201.01,283.11 206.22,282.80 208.61,281.07
             211.09,279.27 213.79,272.91 215.25,270.00
             218.67,263.15 226.34,245.66 231.00,241.00 Z" />
</svg>
